<svg width="98" height="100" viewBox="0 0 98 100" fill="none" xmlns="http://www.w3.org/2000/svg">
<path d="M25.8751 92.1367C27.3266 92.8172 27.7349 97.2621 28.6874 97.2621C29.6171 97.2621 29.0728 94.382 30.6151 94.2458C32.1573 94.1098 27.8256 90.6172 27.8256 90.6172L25.8751 92.1367Z" fill="url(#paint0_radial_308_506)"/>
<path d="M27.8256 90.5947L25.8751 92.1141C26.3287 92.3182 26.669 92.908 26.9637 93.611C28.9821 93.4976 29.6626 93.9285 29.1635 95.0171C28.5967 96.2418 29.1863 96.8768 28.6874 97.2397C29.6171 97.2397 29.0728 94.3594 30.6151 94.2234C32.1573 94.0872 27.8256 90.5947 27.8256 90.5947Z" fill="url(#paint1_radial_308_506)"/>
<path d="M48.9851 97.9199C75.9146 97.9199 97.7451 76.0893 97.7451 49.1599C97.7451 22.2305 75.9146 0.399902 48.9851 0.399902C22.0557 0.399902 0.225128 22.2305 0.225128 49.1599C0.225128 76.0893 22.0557 97.9199 48.9851 97.9199Z" fill="url(#paint2_radial_308_506)"/>
<path opacity="0.5" d="M48.9851 97.9199C75.9146 97.9199 97.7451 76.0893 97.7451 49.1599C97.7451 22.2305 75.9146 0.399902 48.9851 0.399902C22.0557 0.399902 0.225128 22.2305 0.225128 49.1599C0.225128 76.0893 22.0557 97.9199 48.9851 97.9199Z" fill="url(#paint3_radial_308_506)"/>
<path d="M38.6435 27.4788C38.8702 25.1428 36.8973 23.4873 33.2912 23.147C30.2069 22.8523 23.267 24.2356 17.9376 30.994C16.9624 32.2414 18.2098 33.0804 19.1168 32.3094C22.2466 29.6787 30.2749 26.6396 36.1715 28.0004C38.5528 28.522 38.6435 27.4788 38.6435 27.4788Z" fill="url(#paint4_linear_308_506)"/>
<path d="M33.0645 51.2463C35.6571 51.2463 37.7591 48.0682 37.7591 44.1479C37.7591 40.2274 35.6571 37.0493 33.0645 37.0493C30.4717 37.0493 28.3699 40.2274 28.3699 44.1479C28.3699 48.0682 30.4717 51.2463 33.0645 51.2463Z" fill="url(#paint5_radial_308_506)"/>
<path d="M33.0645 39.4531C35.0829 39.4531 36.8291 41.1995 37.7591 43.8075C37.6909 39.9749 35.6272 36.8904 33.0645 36.8904C30.5016 36.8904 28.4379 39.9749 28.3699 43.8075C29.2997 41.1995 31.0459 39.4531 33.0645 39.4531Z" fill="black"/>
<path d="M64.9058 51.2463C67.4986 51.2463 69.6003 48.0682 69.6003 44.1479C69.6003 40.2274 67.4986 37.0493 64.9058 37.0493C62.3131 37.0493 60.2112 40.2274 60.2112 44.1479C60.2112 48.0682 62.3131 51.2463 64.9058 51.2463Z" fill="url(#paint6_radial_308_506)"/>
<path d="M64.9058 39.612C62.8874 39.612 61.1411 41.3583 60.2112 43.9664C60.2794 40.1336 62.3431 37.0493 64.9058 37.0493C67.4685 37.0493 69.5323 40.1336 69.6003 43.9664C68.6706 41.381 66.9243 39.612 64.9058 39.612Z" fill="black"/>
<path d="M48.9851 97.9199C75.9146 97.9199 97.7451 76.0893 97.7451 49.1599C97.7451 22.2305 75.9146 0.399902 48.9851 0.399902C22.0557 0.399902 0.225128 22.2305 0.225128 49.1599C0.225128 76.0893 22.0557 97.9199 48.9851 97.9199Z" fill="url(#paint7_radial_308_506)"/>
<path d="M48.7584 81.2055C56.8549 81.2055 64.5203 82.9063 68.4211 82.9063C72.3447 82.9063 75.7691 80.6384 78.3093 72.4967C81.7111 61.5426 67.7181 60.4314 48.7584 60.4314C29.7987 60.4314 15.7831 61.5653 19.2075 72.4967C21.7477 80.6384 25.1722 82.9063 29.0957 82.9063C33.0192 82.9063 40.6619 81.2055 48.7584 81.2055Z" fill="url(#paint8_radial_308_506)"/>
<path d="M48.7584 60.4314C29.7987 60.4314 15.7831 61.5653 19.2075 72.4967C21.7477 80.6384 25.1722 82.9063 29.0957 82.9063C29.0957 82.9063 20.9765 79.9807 23.6754 74.0842C26.3741 68.1876 48.7584 62.858 48.7584 62.858C48.7584 62.858 71.1653 68.165 73.8642 74.0615C76.5629 79.9581 68.4439 82.8837 68.4439 82.8837C69.3963 82.8837 70.3035 82.7476 71.188 82.4301C73.9549 81.4322 76.4042 78.6426 78.3319 72.474C81.7338 61.5426 67.7408 60.4314 48.7584 60.4314Z" fill="url(#paint9_radial_308_506)"/>
<path d="M48.7584 78.7787C53.7024 78.7787 58.4422 79.391 62.2523 79.8673C64.7925 80.1848 66.9696 80.4797 68.4211 80.4797C68.6251 80.4797 68.852 80.5022 69.0787 80.5249C73.5466 80.5249 74.5898 73.3131 73.4106 73.3131C73.4106 73.3131 76.3362 69.2989 73.9547 65.8289C68.7158 62.8806 55.993 62.8806 48.7357 62.8806C41.4784 62.8806 28.7554 62.8806 23.5165 65.8289C21.1579 69.2989 24.0608 73.3131 24.0608 73.3131C22.8816 73.3131 23.9248 80.5249 28.3925 80.5249C28.6194 80.5022 28.8461 80.4797 29.0502 80.4797C30.5018 80.4797 32.6789 80.2075 35.2189 79.8673C39.0744 79.3683 43.837 78.7787 48.7584 78.7787Z" fill="url(#paint10_radial_308_506)"/>
<path d="M24.0607 73.9936C40.4576 70.2743 57.4896 70.3195 73.864 74.1296C73.8413 73.6987 73.7279 73.404 73.5239 73.3133L73.4104 73.2906C73.4104 73.2906 65.2232 70.3877 48.9623 70.3877C32.7015 70.3877 24.0834 73.2906 24.0834 73.2906C23.8339 73.2906 23.6978 73.5853 23.6525 74.0616L24.0607 73.9936Z" fill="#98AEB2"/>
<path d="M59.3267 27.32C59.1 24.9841 61.073 23.3284 64.679 22.9883C67.7634 22.6936 74.703 24.0769 80.0326 30.8353C81.0078 32.0827 79.7605 32.9217 78.8534 32.1507C75.7237 29.5198 67.6952 26.4809 61.7987 27.8416C59.3947 28.3633 59.3267 27.32 59.3267 27.32Z" fill="url(#paint11_linear_308_506)"/>
<path d="M48.0552 81.2281C47.3296 81.7497 49.348 81.5003 50.1418 84.1765C51.3437 88.1907 50.3685 90.2318 51.1622 90.2318C52.1374 90.2318 51.9334 83.1105 53.4982 83.1105C55.063 83.1105 54.7456 83.7683 56.129 83.4734C57.535 83.1785 59.2587 85.5825 59.5082 86.2176C60.7782 89.4153 60.6875 99.1901 61.9576 99.1901C62.5925 99.1901 62.1163 92.8398 62.7966 86.9661C62.9328 85.764 66.9923 82.8157 67.5819 85.7187C68.1715 88.6216 68.6251 87.9865 68.784 85.3784C68.92 83.156 71.8456 82.4755 71.8456 82.4755C71.8456 82.4755 71.959 81.9539 70.2808 81.8859C68.6026 81.8179 66.6747 82.0673 65.2914 81.659C63.908 81.2509 61.8894 80.5705 59.9165 80.5705C57.9434 80.5705 57.1949 81.0694 55.7661 81.0014C54.3147 80.9107 50.2552 79.6179 48.0552 81.2281Z" fill="url(#paint12_radial_308_506)"/>
<path d="M91.3951 73.245C89.2407 77.3047 87.8344 82.7476 88.152 86.3762C88.5149 90.7533 88.3562 96.1962 87.1088 96.1962C86.2469 96.1962 86.1336 91.8418 85.748 89.4153C85.2944 86.6938 84.977 82.5889 82.9584 82.5889C80.9627 82.5889 86.2016 78.7561 87.2221 76.7829C89.6488 72.0658 91.3951 73.245 91.3951 73.245Z" fill="url(#paint13_radial_308_506)"/>
<path d="M28.9595 82.9063C28.9595 84.8342 29.0503 86.1722 30.0255 86.1722C31.0234 86.1722 30.5243 84.63 31.681 83.2692C32.8376 81.8858 32.5882 92.8398 33.8128 92.8398C35.0375 92.8398 33.1098 85.6732 35.4683 83.4961C39.0064 80.2303 36.7157 84.8794 37.6229 84.8794C38.5301 84.8794 38.8023 82.0673 42.3629 81.5457C41.5237 80.2756 38.8703 80.6158 36.2395 81.591C33.3139 82.6569 28.9595 81.8404 28.9595 82.9063Z" fill="url(#paint14_radial_308_506)"/>
<path d="M2.44784 68.5503C2.22096 74.1748 4.7384 78.2116 4.46624 72.043C4.37552 69.9564 6.96096 74.6964 7.68656 88.1451C8.1176 96.2188 11.0432 103.59 10.5442 96.4683C10.0453 89.3017 11.7235 89.5511 11.837 87.4193C12.0637 82.4753 13.0162 79.5497 15.851 87.0566C16.1006 87.7369 16.6675 87.1019 17.0531 86.0359C17.5293 85.0835 14.8078 82.5433 14.7398 81.0692C14.6718 79.5951 10.7483 78.0076 10.0226 75.4222C9.2968 72.8367 8.00416 72.2471 7.57328 70.4327C7.16496 68.6185 3.4456 65.6702 3.55904 63.9238C3.67248 62.2003 1.2912 58.6851 1.2912 58.6851C1.2912 58.6851 2.58384 65.0124 2.44784 68.5503Z" fill="url(#paint15_radial_308_506)"/>
<path d="M71.8456 91.3657L71.2333 91.7739C71.2333 91.7739 68.7839 93.044 68.6024 93.5656C68.6024 93.6336 68.6024 93.7243 68.6931 93.7697C69.8045 94.1552 69.9179 96.7633 70.3714 96.7633C71.1879 96.7633 70.8024 94.0192 72.2311 94.0192C73.161 94.0192 73.9095 97.6251 74.4311 97.6251C75.6784 97.6251 75.0659 90.5492 77.4247 88.7576L75.8371 89.1886C74.9072 89.438 74.0455 89.9142 73.3424 90.5947C73.0023 90.9348 72.7074 91.1843 72.3218 91.2296C72.2311 91.2296 72.0496 91.2977 71.8456 91.3657Z" fill="url(#paint16_radial_308_506)"/>
<path d="M5.71346 71.6574C5.16914 67.3484 3.8085 71.272 3.89922 74.2428C3.89922 74.5377 3.60434 74.583 3.33218 74.4016C3.9445 75.7169 4.62482 75.3995 4.48882 72.0203C4.3981 69.9339 6.98354 74.6737 7.7093 88.1225C8.00402 93.7468 9.50082 98.9857 10.2266 99.3033C9.68226 97.6703 8.3669 91.5697 8.3669 85.4691C8.3669 79.3457 6.3485 76.6016 5.71346 71.6574Z" fill="url(#paint17_radial_308_506)"/>
<path d="M64.4749 84.5393C62.5245 85.3784 62.1162 87.2608 62.1162 88.9163C62.1162 90.5265 62.2069 97.2169 61.4359 98.4643C61.572 98.9179 61.7535 99.1901 61.9575 99.1901C62.5925 99.1901 62.1162 92.8398 62.7967 86.9661C62.9327 85.764 66.9922 82.8157 67.5819 85.7187C67.8994 87.2155 68.1715 87.7598 68.3757 87.5784C68.1488 87.3062 67.9674 86.8072 67.8994 85.6505C67.8087 84.3806 66.4253 83.7001 64.4749 84.5393Z" fill="url(#paint18_radial_308_506)"/>
<path d="M37.0786 82.3394C35.6271 82.4301 33.7219 84.1083 33.8808 86.4442C34.0623 88.7802 34.0848 91.5243 33.9261 92.1821C33.8808 92.3861 33.6087 92.4315 33.5405 92.5902C33.6312 92.7037 33.6994 92.7944 33.8127 92.7944C35.0375 92.7944 33.1096 85.6278 35.4683 83.4506C36.2847 82.7248 36.7837 82.4074 37.0786 82.3394Z" fill="url(#paint19_radial_308_506)"/>
<path d="M87.6304 95.4932C86.7685 95.2892 86.1562 88.8937 85.4986 84.3579C85.2037 82.3622 84.1378 81.1148 83.3667 81.7271C82.5048 82.6569 82.9358 82.5889 82.9358 82.5889C84.9315 82.5889 85.2717 86.6939 85.7253 89.4153C86.1334 91.842 86.2469 96.1963 87.0861 96.1963C87.3355 96.1963 87.5397 95.9923 87.6984 95.6067C87.6757 95.5614 87.6984 95.4932 87.6304 95.4932Z" fill="url(#paint20_radial_308_506)"/>
<path d="M56.6734 83.0878C55.6981 83.0878 55.6075 83.292 55.3806 83.1786C55.1539 83.0653 54.224 82.5435 53.2715 82.7704C52.319 82.9971 51.8427 84.4939 51.9334 85.5146C52.0242 86.535 51.3438 87.5102 51.5026 88.304C51.6613 89.0979 51.4346 90.2318 50.9128 89.8462C50.8902 89.8235 50.8902 89.8462 50.8675 89.8462C50.9128 90.0731 50.981 90.2091 51.185 90.2091C52.1602 90.2091 51.9562 83.0878 53.521 83.0878C55.0858 83.0878 54.7456 83.7456 56.1517 83.4507C57.5352 83.156 59.2814 85.5598 59.5309 86.1949C59.1907 84.7435 57.6259 83.0878 56.6734 83.0878Z" fill="url(#paint21_radial_308_506)"/>
<path d="M75.0661 93.3614C74.9754 95.1304 74.6352 98.2374 74.363 97.1715C74.0909 96.1057 72.8888 93.2027 71.959 93.5656C71.0291 93.9284 70.9839 94.9036 70.8024 95.7881C70.689 96.3324 70.4622 96.8088 70.3035 96.718C70.3261 96.7406 70.3488 96.7633 70.3715 96.7633C71.188 96.7633 70.8024 94.0192 72.2312 94.0192C73.161 94.0192 73.9094 97.6251 74.431 97.6251C75.6784 97.6251 75.0661 90.5492 77.4246 88.7576C76.4267 89.3699 75.1568 91.5924 75.0661 93.3614Z" fill="url(#paint22_radial_308_506)"/>
<path d="M70.2808 96.6953C70.1901 96.6273 70.1219 96.3552 70.1219 95.7881C70.1219 94.5408 69.5096 93.8832 68.6706 93.4749C68.6478 93.5203 68.6026 93.5656 68.5798 93.5883C68.5798 93.6563 68.5798 93.747 68.6706 93.7925C69.7138 94.1326 69.8952 96.3777 70.2808 96.6953Z" fill="url(#paint23_radial_308_506)"/>
<path opacity="0.5" d="M12.109 82.294C11.5194 83.2466 10.0451 83.0425 8.8432 81.8404C7.61856 80.6385 6.03104 72.2698 6.62064 71.3174C7.21024 70.3649 9.77296 77.214 10.975 78.4159C12.1997 79.5953 12.6986 81.3415 12.109 82.294Z" fill="url(#paint24_radial_308_506)"/>
<path opacity="0.5" d="M64.9739 82.4527C65.0646 83.4961 63.6358 84.3578 61.7762 84.4033C59.9165 84.4486 58.329 83.6321 58.2383 82.6116C58.1475 81.591 59.5763 80.7065 61.436 80.6612C63.2957 80.593 64.8832 81.4095 64.9739 82.4527Z" fill="url(#paint25_radial_308_506)"/>
<path opacity="0.5" d="M28.9595 82.9063C28.9595 84.8342 29.0503 86.1722 30.0255 86.1722C31.0234 86.1722 30.5243 84.63 31.681 83.2692C32.8376 81.8858 32.5882 92.8398 33.8128 92.8398C35.0375 92.8398 33.1098 85.6732 35.4683 83.4961C39.0064 80.2303 36.7157 84.8794 37.6229 84.8794C38.5301 84.8794 38.8023 82.0673 42.3629 81.5457C41.5237 80.2756 38.8703 80.6158 36.2395 81.591C33.3139 82.6569 28.9595 81.8404 28.9595 82.9063Z" fill="url(#paint26_radial_308_506)"/>
<defs>
<radialGradient id="paint0_radial_308_506" cx="0" cy="0" r="1" gradientUnits="userSpaceOnUse" gradientTransform="translate(28.7127 95.3146) rotate(177.667) scale(4.83896 3.94894)">
<stop stop-color="#AFE8FF"/>
<stop offset="0.2327" stop-color="#ACE7FF"/>
<stop offset="0.3943" stop-color="#A3E4FF"/>
<stop offset="0.5342" stop-color="#94E0FF"/>
<stop offset="0.6619" stop-color="#7ED9FE"/>
<stop offset="0.7813" stop-color="#62D1FE"/>
<stop offset="0.8928" stop-color="#40C6FE"/>
<stop offset="1" stop-color="#17BAFD"/>
</radialGradient>
<radialGradient id="paint1_radial_308_506" cx="0" cy="0" r="1" gradientUnits="userSpaceOnUse" gradientTransform="translate(27.9824 101.048) rotate(84.9814) scale(5.70734 4.65778)">
<stop stop-color="#AFE8FF"/>
<stop offset="0.2327" stop-color="#ACE7FF"/>
<stop offset="0.3943" stop-color="#A3E4FF"/>
<stop offset="0.5342" stop-color="#94E0FF"/>
<stop offset="0.6619" stop-color="#7ED9FE"/>
<stop offset="0.7813" stop-color="#62D1FE"/>
<stop offset="0.8928" stop-color="#40C6FE"/>
<stop offset="1" stop-color="#17BAFD"/>
</radialGradient>
<radialGradient id="paint2_radial_308_506" cx="0" cy="0" r="1" gradientUnits="userSpaceOnUse" gradientTransform="translate(39.3915 29.3991) scale(58.8226)">
<stop stop-color="#80D9FD"/>
<stop offset="1" stop-color="#008DE5"/>
</radialGradient>
<radialGradient id="paint3_radial_308_506" cx="0" cy="0" r="1" gradientUnits="userSpaceOnUse" gradientTransform="translate(39.3915 29.3991) scale(46.2784)">
<stop stop-color="#AFE8FF"/>
<stop offset="1" stop-color="#80D9FD" stop-opacity="0"/>
</radialGradient>
<linearGradient id="paint4_linear_308_506" x1="28.0376" y1="30.4148" x2="28.6184" y2="24.278" gradientUnits="userSpaceOnUse">
<stop offset="0.00132565" stop-color="#000042"/>
<stop offset="1" stop-color="#27009C"/>
</linearGradient>
<radialGradient id="paint5_radial_308_506" cx="0" cy="0" r="1" gradientUnits="userSpaceOnUse" gradientTransform="translate(32.308 42.3188) rotate(73.8539) scale(8.8337 5.71525)">
<stop offset="0.0026513" stop-color="#1404BD"/>
<stop offset="1" stop-color="#000042"/>
</radialGradient>
<radialGradient id="paint6_radial_308_506" cx="0" cy="0" r="1" gradientUnits="userSpaceOnUse" gradientTransform="translate(64.9047 44.1432) scale(6.01935 6.01934)">
<stop offset="0.0026513" stop-color="#1404BD"/>
<stop offset="1" stop-color="#000042"/>
</radialGradient>
<radialGradient id="paint7_radial_308_506" cx="0" cy="0" r="1" gradientUnits="userSpaceOnUse" gradientTransform="translate(49.392 88.3319) rotate(0.333381) scale(35.9752 10.4868)">
<stop stop-color="#3640FF" stop-opacity="0.5"/>
<stop offset="0.3014" stop-color="#3531F0" stop-opacity="0.3486"/>
<stop offset="0.8826" stop-color="#3109C9" stop-opacity="0.0565011"/>
<stop offset="0.995" stop-color="#3000C1" stop-opacity="0"/>
</radialGradient>
<radialGradient id="paint8_radial_308_506" cx="0" cy="0" r="1" gradientUnits="userSpaceOnUse" gradientTransform="translate(48.769 71.6607) scale(59.5326 59.5326)">
<stop offset="0.0026513" stop-color="#1404BD"/>
<stop offset="1" stop-color="#000042"/>
</radialGradient>
<radialGradient id="paint9_radial_308_506" cx="0" cy="0" r="1" gradientUnits="userSpaceOnUse" gradientTransform="translate(48.769 71.6607) scale(22.699 22.699)">
<stop offset="0.0026513" stop-color="#1404BD"/>
<stop offset="1" stop-color="#000042"/>
</radialGradient>
<radialGradient id="paint10_radial_308_506" cx="0" cy="0" r="1" gradientUnits="userSpaceOnUse" gradientTransform="translate(48.7691 71.683) rotate(180) scale(41.221 41.221)">
<stop offset="0.00132565" stop-color="white"/>
<stop offset="1" stop-color="#A8BBBD"/>
</radialGradient>
<linearGradient id="paint11_linear_308_506" x1="13139.2" y1="-1209.04" x2="13138.1" y2="-1208.94" gradientUnits="userSpaceOnUse">
<stop offset="0.00132565" stop-color="#000042"/>
<stop offset="1" stop-color="#27009C"/>
</linearGradient>
<radialGradient id="paint12_radial_308_506" cx="0" cy="0" r="1" gradientUnits="userSpaceOnUse" gradientTransform="translate(61.3174 84.0478) rotate(177.946) scale(16.8019 18.7246)">
<stop stop-color="#AFE8FF"/>
<stop offset="0.2327" stop-color="#ACE7FF"/>
<stop offset="0.3943" stop-color="#A3E4FF"/>
<stop offset="0.5342" stop-color="#94E0FF"/>
<stop offset="0.6619" stop-color="#7ED9FE"/>
<stop offset="0.7813" stop-color="#62D1FE"/>
<stop offset="0.8928" stop-color="#40C6FE"/>
<stop offset="1" stop-color="#17BAFD"/>
</radialGradient>
<radialGradient id="paint13_radial_308_506" cx="0" cy="0" r="1" gradientUnits="userSpaceOnUse" gradientTransform="translate(88.1019 82.6564) rotate(86.2913) scale(18.3406 7.03478)">
<stop stop-color="#AFE8FF"/>
<stop offset="0.2211" stop-color="#ACE7FF"/>
<stop offset="0.3745" stop-color="#A3E2FD"/>
<stop offset="0.5074" stop-color="#94DAFB"/>
<stop offset="0.6287" stop-color="#7ECEF8"/>
<stop offset="0.7421" stop-color="#62C0F4"/>
<stop offset="0.8496" stop-color="#3FAEEE"/>
<stop offset="0.9506" stop-color="#1799E8"/>
<stop offset="1" stop-color="#008DE5"/>
</radialGradient>
<radialGradient id="paint14_radial_308_506" cx="0" cy="0" r="1" gradientUnits="userSpaceOnUse" gradientTransform="translate(36.2776 88.0706) rotate(86.4586) scale(13.8724 7.59403)">
<stop stop-color="#AFE8FF"/>
<stop offset="0.2327" stop-color="#ACE7FF"/>
<stop offset="0.3943" stop-color="#A3E4FF"/>
<stop offset="0.5342" stop-color="#94E0FF"/>
<stop offset="0.6619" stop-color="#7ED9FE"/>
<stop offset="0.7813" stop-color="#62D1FE"/>
<stop offset="0.8928" stop-color="#40C6FE"/>
<stop offset="1" stop-color="#17BAFD"/>
</radialGradient>
<radialGradient id="paint15_radial_308_506" cx="0" cy="0" r="1" gradientUnits="userSpaceOnUse" gradientTransform="translate(8.98384 78.1235) rotate(87.5591) scale(41.873 18.9082)">
<stop stop-color="#AFE8FF"/>
<stop offset="0.2211" stop-color="#ACE7FF"/>
<stop offset="0.3745" stop-color="#A3E2FD"/>
<stop offset="0.5074" stop-color="#94DAFB"/>
<stop offset="0.6287" stop-color="#7ECEF8"/>
<stop offset="0.7421" stop-color="#62C0F4"/>
<stop offset="0.8496" stop-color="#3FAEEE"/>
<stop offset="0.9506" stop-color="#1799E8"/>
<stop offset="1" stop-color="#008DE5"/>
</radialGradient>
<radialGradient id="paint16_radial_308_506" cx="0" cy="0" r="1" gradientUnits="userSpaceOnUse" gradientTransform="translate(74.2858 94.1849) rotate(176.69) scale(9.86142 8.04779)">
<stop offset="0.3542" stop-color="#AFE8FF"/>
<stop offset="0.3584" stop-color="#ACE7FF"/>
<stop offset="0.4247" stop-color="#85DBFE"/>
<stop offset="0.4951" stop-color="#63D1FE"/>
<stop offset="0.5701" stop-color="#47C9FE"/>
<stop offset="0.6508" stop-color="#32C2FD"/>
<stop offset="0.74" stop-color="#23BEFD"/>
<stop offset="0.8443" stop-color="#1ABBFD"/>
<stop offset="1" stop-color="#17BAFD"/>
</radialGradient>
<radialGradient id="paint17_radial_308_506" cx="0" cy="0" r="1" gradientUnits="userSpaceOnUse" gradientTransform="translate(2.80866 85.7644) rotate(87.559) scale(28.3846 12.8187)">
<stop stop-color="#AFE8FF"/>
<stop offset="0.2211" stop-color="#ACE7FF"/>
<stop offset="0.3745" stop-color="#A3E2FD"/>
<stop offset="0.5074" stop-color="#94DAFB"/>
<stop offset="0.6287" stop-color="#7ECEF8"/>
<stop offset="0.7421" stop-color="#62C0F4"/>
<stop offset="0.8496" stop-color="#3FAEEE"/>
<stop offset="0.9506" stop-color="#1799E8"/>
<stop offset="1" stop-color="#008DE5"/>
</radialGradient>
<radialGradient id="paint18_radial_308_506" cx="0" cy="0" r="1" gradientUnits="userSpaceOnUse" gradientTransform="translate(58.2967 76.9096) scale(7.27085 7.27085)">
<stop stop-color="#AFE8FF"/>
<stop offset="0.2327" stop-color="#ACE7FF"/>
<stop offset="0.3943" stop-color="#A3E4FF"/>
<stop offset="0.5342" stop-color="#94E0FF"/>
<stop offset="0.6619" stop-color="#7ED9FE"/>
<stop offset="0.7813" stop-color="#62D1FE"/>
<stop offset="0.8928" stop-color="#40C6FE"/>
<stop offset="1" stop-color="#17BAFD"/>
</radialGradient>
<radialGradient id="paint19_radial_308_506" cx="0" cy="0" r="1" gradientUnits="userSpaceOnUse" gradientTransform="translate(34.6976 73.7094) scale(12.3291 12.3291)">
<stop stop-color="#AFE8FF"/>
<stop offset="0.2327" stop-color="#ACE7FF"/>
<stop offset="0.3943" stop-color="#A3E4FF"/>
<stop offset="0.5342" stop-color="#94E0FF"/>
<stop offset="0.6619" stop-color="#7ED9FE"/>
<stop offset="0.7813" stop-color="#62D1FE"/>
<stop offset="0.8928" stop-color="#40C6FE"/>
<stop offset="1" stop-color="#17BAFD"/>
</radialGradient>
<radialGradient id="paint20_radial_308_506" cx="0" cy="0" r="1" gradientUnits="userSpaceOnUse" gradientTransform="translate(74.6288 101.312) scale(32.5346 32.5346)">
<stop stop-color="#AFE8FF"/>
<stop offset="0.2211" stop-color="#ACE7FF"/>
<stop offset="0.3745" stop-color="#A3E2FD"/>
<stop offset="0.5074" stop-color="#94DAFB"/>
<stop offset="0.6287" stop-color="#7ECEF8"/>
<stop offset="0.7421" stop-color="#62C0F4"/>
<stop offset="0.8496" stop-color="#3FAEEE"/>
<stop offset="0.9506" stop-color="#1799E8"/>
<stop offset="1" stop-color="#008DE5"/>
</radialGradient>
<radialGradient id="paint21_radial_308_506" cx="0" cy="0" r="1" gradientUnits="userSpaceOnUse" gradientTransform="translate(55.8267 89.7778) rotate(177.667) scale(5.95558 7.53565)">
<stop stop-color="#AFE8FF"/>
<stop offset="0.2327" stop-color="#ACE7FF"/>
<stop offset="0.3943" stop-color="#A3E4FF"/>
<stop offset="0.5342" stop-color="#94E0FF"/>
<stop offset="0.6619" stop-color="#7ED9FE"/>
<stop offset="0.7813" stop-color="#62D1FE"/>
<stop offset="0.8928" stop-color="#40C6FE"/>
<stop offset="1" stop-color="#17BAFD"/>
</radialGradient>
<radialGradient id="paint22_radial_308_506" cx="0" cy="0" r="1" gradientUnits="userSpaceOnUse" gradientTransform="translate(71.8275 83.8229) rotate(84.9814) scale(11.8119 9.63969)">
<stop stop-color="#AFE8FF"/>
<stop offset="0.2327" stop-color="#ACE7FF"/>
<stop offset="0.3943" stop-color="#A3E4FF"/>
<stop offset="0.5342" stop-color="#94E0FF"/>
<stop offset="0.6619" stop-color="#7ED9FE"/>
<stop offset="0.7813" stop-color="#62D1FE"/>
<stop offset="0.8928" stop-color="#40C6FE"/>
<stop offset="1" stop-color="#17BAFD"/>
</radialGradient>
<radialGradient id="paint23_radial_308_506" cx="0" cy="0" r="1" gradientUnits="userSpaceOnUse" gradientTransform="translate(71.8275 83.8228) rotate(84.9814) scale(11.8119 9.6397)">
<stop stop-color="#AFE8FF"/>
<stop offset="0.2327" stop-color="#ACE7FF"/>
<stop offset="0.3943" stop-color="#A3E4FF"/>
<stop offset="0.5342" stop-color="#94E0FF"/>
<stop offset="0.6619" stop-color="#7ED9FE"/>
<stop offset="0.7813" stop-color="#62D1FE"/>
<stop offset="0.8928" stop-color="#40C6FE"/>
<stop offset="1" stop-color="#17BAFD"/>
</radialGradient>
<radialGradient id="paint24_radial_308_506" cx="0" cy="0" r="1" gradientUnits="userSpaceOnUse" gradientTransform="translate(8.976 78.9679) rotate(-109.718) scale(8.59354 3.0144)">
<stop stop-color="white"/>
<stop offset="0.0236692" stop-color="#FCFEFF" stop-opacity="0.9763"/>
<stop offset="0.2964" stop-color="#DAF4FF" stop-opacity="0.7036"/>
<stop offset="0.5569" stop-color="#C2EEFF" stop-opacity="0.4431"/>
<stop offset="0.7977" stop-color="#B4E9FF" stop-opacity="0.2023"/>
<stop offset="1" stop-color="#AFE8FF" stop-opacity="0"/>
</radialGradient>
<radialGradient id="paint25_radial_308_506" cx="0" cy="0" r="1" gradientUnits="userSpaceOnUse" gradientTransform="translate(61.5354 82.445) rotate(177.165) scale(5.57033 2.98018)">
<stop stop-color="white"/>
<stop offset="0.51" stop-color="#D4F3FF" stop-opacity="0.49"/>
<stop offset="1" stop-color="#AFE8FF" stop-opacity="0"/>
</radialGradient>
<radialGradient id="paint26_radial_308_506" cx="0" cy="0" r="1" gradientUnits="userSpaceOnUse" gradientTransform="translate(33.3888 82.2462) rotate(161.967) scale(14.7859 3.58559)">
<stop stop-color="white"/>
<stop offset="0.51" stop-color="#D4F3FF" stop-opacity="0.49"/>
<stop offset="1" stop-color="#AFE8FF" stop-opacity="0"/>
</radialGradient>
</defs>
</svg>
