<svg width="95" height="120" viewBox="0 0 95 120" fill="none" xmlns="http://www.w3.org/2000/svg">
<path d="M19.5208 36.7299C18.9508 42.8099 18.5508 53.5699 22.1408 58.1499C22.1408 58.1499 20.4508 46.3299 35.6008 31.4999C41.7008 25.5299 43.1108 17.4099 40.9808 11.3199C39.7708 7.8699 37.5608 5.0199 35.6408 3.0299C34.5208 1.8599 35.3808 -0.0701006 37.0108 -0.000100559C46.8708 0.439899 62.8508 3.1799 69.6408 20.2199C72.6208 27.6999 72.8408 35.4299 71.4208 43.2899C70.5208 48.3099 67.3208 59.4699 74.6208 60.8399C79.8308 61.8199 82.3508 57.6799 83.4808 54.6999C83.9508 53.4599 85.5808 53.1499 86.4608 54.1399C95.2608 64.1499 96.0108 75.9399 94.1908 86.0899C90.6708 105.71 70.8008 119.99 51.0608 119.99C26.4008 119.99 6.77076 105.88 1.68076 80.3399C-0.369243 70.0299 0.670759 49.6299 16.5708 35.2299C17.7508 34.1499 19.6808 35.1099 19.5208 36.7299Z" fill="url(#paint0_radial_427_177)"/>
<path d="M60.0708 73.4201C50.9808 61.7201 55.0508 48.3701 57.2808 43.0501C57.5808 42.3501 56.7808 41.6901 56.1508 42.1201C52.2408 44.7801 44.2308 51.0401 40.5008 59.8501C35.4508 71.7601 35.8108 77.5901 38.8008 84.7101C40.6008 89.0001 38.5108 89.9101 37.4608 90.0701C36.4408 90.2301 35.5008 89.5501 34.7508 88.8401C32.6008 86.7901 31.0508 84.1201 30.3108 81.2401C30.1508 80.6201 29.3408 80.4501 28.9708 80.9601C26.1708 84.8301 24.7208 91.0401 24.6508 95.4301C24.4308 109 35.6408 120 49.2008 120C66.2908 120 78.7408 101.1 68.9208 85.3001C66.0708 80.7001 63.3908 77.6901 60.0708 73.4201Z" fill="url(#paint1_radial_427_177)"/>
<defs>
<radialGradient id="paint0_radial_427_177" cx="0" cy="0" r="1" gradientUnits="userSpaceOnUse" gradientTransform="translate(46.1768 120.301) rotate(-179.751) scale(70.5877 115.82)">
<stop offset="0.3144" stop-color="#FF9800"/>
<stop offset="0.6616" stop-color="#FF6D00"/>
<stop offset="0.9715" stop-color="#F44336"/>
</radialGradient>
<radialGradient id="paint1_radial_427_177" cx="0" cy="0" r="1" gradientUnits="userSpaceOnUse" gradientTransform="translate(50.1406 50.059) rotate(90.5787) scale(73.8563 55.5824)">
<stop offset="0.2141" stop-color="#FFF176"/>
<stop offset="0.3275" stop-color="#FFF27D"/>
<stop offset="0.4868" stop-color="#FFF48F"/>
<stop offset="0.6722" stop-color="#FFF7AD"/>
<stop offset="0.7931" stop-color="#FFF9C4"/>
<stop offset="0.8221" stop-color="#FFF8BD" stop-opacity="0.804"/>
<stop offset="0.8627" stop-color="#FFF6AB" stop-opacity="0.529"/>
<stop offset="0.9101" stop-color="#FFF38D" stop-opacity="0.2088"/>
<stop offset="0.9409" stop-color="#FFF176" stop-opacity="0"/>
</radialGradient>
</defs>
</svg>
